PathFileType	4	(X/Y/Z)	C:/Users/beibeiliu/ov580/test_trc/User3\sequence.17_training_dense_right.trc
DataRate	CameraRate	NumFrames	NumMarkers	Units	OrigDataRate	OrigDataStartFrame	OrigNumFrames
120	120	12	19	mm	120	155	247
Frame#	Time	ThumbCMC			ThumbMCP			ThumbIP			ThumbTip			IndexMCP			IndexPIP			IndexTip			MiddleMCP			MiddlePIP			MiddleTip			RingMCP			RingPIP			RingTip			PinkyMCP			PinkyPIP			PinkyTip			BackHand1			BackHand2			BackHand3	
		X0	Y0	Z0	X1	Y1	Z1	X2	Y2	Z2	X3	Y3	Z3	X4	Y4	Z4	X5	Y5	Z5	X6	Y6	Z6	X7	Y7	Z7	X8	Y8	Z8	X9	Y9	Z9	X10	Y10	Z10	X11	Y11	Z11	X12	Y12	Z12	X13	Y13	Z13	X14	Y14	Z14	X15	Y15	Z15	X16	Y16	Z16	X17	Y17	Z17	X18	Y18	Z18	
154	1.28333	132.604	11.1914	42.5535	98.272	4.78277	50.9211	65.038	-6.06413	53.9133	54.7169	-30.3364	57.7417	79.9723	-19.529	-12.4756	55.4589	-20.0942	-21.7024	33.0154	-24.6332	-27.6316	68.7868	-41.8973	8.11913	49.826	-34.1858	32.0676	78.2505	-18.3099	54.6571	80.3455	-55.0684	20.2021	60.431	-47.2776	43.5208	84.5249	-27.8886	63.7826	96.9555	-70.126	25.0511	72.659	-78.9985	22.6259	45.8713	-83.0458	23.9754	138.947	-53.2017	17.815	163.57	-47.6902	31.6435	148.674	-18.9388	15.7963	
155	1.29167	142.126	11.3396	36.9531	103.417	11.2352	42.3558	71.8465	4.00568	44.9617	58.8958	-17.9328	50.6487	89.1924	-12.5746	-15.9535	64.9574	-10.0859	-27.5833	38.8792	-13.0396	-36.641	73.9707	-33.5732	3.35082	53.2213	-18.7759	25.6814	84.7216	-8.15119	50.3585	78.1531	-44.9315	16.7237	61.8583	-33.2246	41.7125	84.9284	-20.8428	59.676	93.1916	-68.0559	25.2402	72.8026	-67.8906	21.1668	47.9195	-71.6345	19.9211	136.011	-52.0186	16.4206	165.181	-47.6051	29.1384	151.645	-21.0342	11.0908	
156	1.3	151.561	8.99601	30.8909	113.617	20.9409	33.2064	85.6234	15.3899	36.2473	67.1147	-4.53386	42.3533	95.243	-13.043	-23.454	77.5827	-6.46024	-36.1706	51.9065	-6.55944	-44.3887	82.6434	-25.0067	-4.28655	59.7152	-8.42519	18.3222	90.4845	4.22668	41.3323	77.8423	-39.2864	13.6771	64.0207	-23.3928	33.6153	91.6038	-6.70529	50.9884	92.9189	-57.6045	22.3368	72.3286	-62.154	20.8189	47.4462	-63.3226	14.2697	139.348	-53.822	18.7779	163.396	-53.2949	29.6002	156.899	-24.9011	7.00446	
157	1.30833	160.945	7.46016	24.1951	125.613	26.9881	23.5613	94.7329	28.6685	24.9083	76.8728	11.1022	32.0247	111.39	-10.1427	-30.6879	87.0159	-6.82701	-46.471	63.1873	-0.74028	-59.6048	86.2283	-21.2255	-10.6348	68.665	3.16086	5.36479	96.5345	11.3194	30.9907	84.8553	-28.804	3.30777	69.8391	-14.3309	23.9001	95.8306	-0.199926	42.8228	91.7448	-54.2919	17.882	75.3817	-53.2564	12.4985	48.018	-54.6481	6.15259	140.307	-51.5078	13.3035	162.725	-54.6864	29.0402	164.627	-26.1938	6.10261	
158	1.31667	167.077	5.90952	14.7464	139.009	24.1381	15.0766	105.023	29.1677	11.2287	80.987	18.1798	17.4952	120.955	-10.9023	-43.2286	104.062	-6.40937	-60.4545	82.2407	-1.84931	-74.8998	95.2344	-18.8568	-22.5247	78.3968	5.16637	-11.15	106.136	13.2323	20.4664	92.932	-27.5811	-6.30312	76.048	-6.06564	12.3253	100.911	5.89532	30.238	99.3824	-50.0886	12.823	76.5654	-51.513	6.05623	53.4134	-53.6145	-3.93623	145.238	-52.5226	8.86117	167.25	-56.1179	25.099	168.277	-33.4398	0.0857125	
159	1.325	175.937	5.21783	9.80404	145.225	21.5115	2.62495	112.319	28.3158	-3.69624	86.116	12.1151	2.78631	131.286	-20.8589	-48.002	114.94	-16.5919	-71.0389	97.1682	-11.6018	-89.2097	105.661	-26.4132	-31.0779	85.8314	1.54557	-22.0901	109.82	10.8359	7.76996	99.324	-35.2838	-13.6351	83.4013	-9.33644	-6.99844	103.945	4.63646	16.8893	103.839	-51.2072	0.518127	83.7784	-52.1374	-6.82341	58.8505	-57.4933	-14.3953	150.726	-54.3698	7.21442	173.341	-55.1748	25.9226	177.18	-35.4183	0.733127	
160	1.33333	179.885	2.89787	-0.467152	147.257	14.7471	-9.96835	117.36	19.8014	-18.415	96.1705	6.99158	-12.3461	147.101	-28.5112	-59.667	131.207	-27.8808	-83.0021	118.365	-26.5862	-101.677	113.484	-34.8991	-43.0476	96.0422	-7.885	-38.8861	114.053	4.23772	-7.61645	107.3	-42.7265	-23.758	91.7974	-17.7804	-19.9429	108.147	-2.03801	3.11698	112.751	-59.4966	-4.04192	93.2944	-60.7385	-16.5207	73.8441	-61.6379	-26.506	157.402	-60.2363	6.25439	176.973	-58.4095	26.7936	185.756	-36.3492	-6.05053	
161	1.34167	184.724	-1.39806	-1.36869	154.013	11.428	-20.0398	124.959	5.55781	-30.4484	102.749	-7.22352	-27.9002	160.984	-40.7705	-62.5577	150.323	-41.7767	-87.7067	138.172	-44.9217	-110.458	133.08	-46.7334	-50.3994	107.666	-18.9432	-50.5245	124.717	-4.79896	-17.7626	122.33	-54.5948	-31.0028	101.629	-28.9756	-33.7852	117.533	-8.54507	-7.51523	123.134	-68.3366	-9.53418	102.18	-72.8689	-25.1685	85.3705	-75.6003	-35.429	165.098	-63.036	1.01466	182.089	-59.9131	27.1605	194.774	-40.4182	-4.65936	
162	1.35	187.703	-3.8482	-6.47857	159.67	5.30056	-26.6859	133.608	-0.833662	-41.6378	110.807	-18.2403	-41.6631	178.892	-46.3436	-68.6442	172.416	-50.7917	-88.6281	160.174	-57.8501	-115.366	145.252	-57.4044	-57.3303	121.154	-35.7506	-59.6132	131.99	-14.0665	-28.702	134.348	-63.0094	-39.02	115.102	-40.562	-44.0359	124.76	-18.8988	-19.4477	138.03	-75.7303	-17.0128	122.401	-81.457	-32.7997	107.207	-89.9655	-50.1594	176.857	-68.6113	1.50093	189.985	-59.7407	30.174	201.702	-42.6462	-0.499919	
163	1.35833	189.778	-6.00136	-6.72459	164.196	-2.46685	-30.0754	139.467	-11.2286	-49.5793	119.42	-29.4525	-52.1176	194.78	-51.4403	-65.172	191.968	-54.8459	-92.5834	186.942	-60.8516	-113.957	166.163	-61.5482	-59.2287	138.415	-43.8654	-66.9173	138.604	-23.8272	-35.5473	151.639	-68.1016	-46.1944	126.983	-53.6143	-47.1459	134.026	-26.835	-22.3739	150.904	-83.7195	-23.2519	139.928	-91.4044	-34.4285	133.16	-100.375	-52.0108	191.507	-65.0757	4.12977	197.537	-54.1728	28.9868	212.02	-38.8508	-1.57527	
164	1.36667	191.018	-3.07477	-5.59904	164.901	-3.19093	-34.3258	146.02	-16.5167	-52.0737	131.357	-40.2861	-57.1426	211.098	-41.6949	-67.2874	210.862	-46.0432	-94.2118	207.481	-54.7404	-114.067	179.86	-60.9498	-64.1456	151.69	-48.6279	-69.1481	147.262	-28.2408	-35.8666	169.261	-71.9022	-47.3245	143.883	-54.856	-53.6588	140.5	-35.6207	-27.0199	167.119	-85.1484	-31.0509	160.146	-89.7796	-44.3629	159.506	-106.851	-56.4	201.458	-63.3541	3.73765	201.929	-54.4158	32.6309	215.795	-34.3162	3.87439	
165	1.375	189.286	0.226392	-2.34462	165.719	-2.33925	-32.5651	150.637	-21.019	-57.0621	144.704	-45.1623	-58.2642	221.886	-28.9776	-65.2022	222.302	-34.9009	-87.4792	224.278	-39.4078	-112.029	196.753	-54.2188	-63.4702	166.926	-45.5718	-75.5356	153.66	-27.9246	-39.6977	187.041	-65.7128	-48.7967	156.304	-57.8007	-55.9462	149.135	-38.0343	-28.6546	182.11	-81.8875	-33.9848	175.516	-86.9157	-45.3803	182.994	-95.4857	-50.3656	213.065	-58.3962	0.557199	209.867	-48.8917	32.2091	221.432	-21.7524	2.38756	
